<svg width="20" height="20" viewBox="0 0 20 20" fill="none" xmlns="http://www.w3.org/2000/svg">
<g clip-path="url(#clip0)">
<path d="M19.5517 15.8057L16.463 12.7167C15.8478 12.1039 14.829 12.1226 14.1924 12.7594L12.6363 14.3152C12.538 14.261 12.4362 14.2044 12.3292 14.1444C11.3466 13.5999 10.0016 12.8536 8.58636 11.4373C7.1669 10.018 6.41994 8.67103 5.8738 7.68774C5.81617 7.58357 5.76095 7.48313 5.70642 7.38775L6.75079 6.34494L7.26424 5.83085C7.90185 5.19306 7.91944 4.17455 7.30566 3.56003L4.21698 0.470661C3.60321 -0.142996 2.58395 -0.12438 1.94633 0.51341L1.07584 1.38891L1.09962 1.41252C0.807734 1.78497 0.563822 2.21453 0.382311 2.67776C0.214991 3.1187 0.110819 3.53946 0.0631858 3.9611C-0.344655 7.34219 1.20041 10.4323 5.3935 14.6254C11.1896 20.4211 15.8606 19.9833 16.0621 19.9619C16.5009 19.9095 16.9215 19.8046 17.349 19.6386C17.8082 19.4592 18.2374 19.2156 18.6097 18.9244L18.6287 18.9413L19.5105 18.0777C20.1468 17.4401 20.1652 16.4212 19.5517 15.8057Z" fill="#301411"/>
</g>
<defs>
<clipPath id="clip0">
<rect width="20" height="20" fill="white"/>
</clipPath>
</defs>
</svg>
