<svg width="38" height="40" viewBox="0 0 38 40" fill="none" xmlns="http://www.w3.org/2000/svg">
<path d="M12.2109 32.5361C14 32.5361 15.3906 34.0172 15.3906 35.8213C15.3906 37.6254 13.9219 39.1065 12.2109 39.1065C10.5 39.1065 9.03125 37.6254 9.03125 35.8213C9.03125 34.0172 10.5 32.5361 12.2109 32.5361ZM12.2109 37.46C13.1094 37.46 13.7578 36.7194 13.7578 35.8134C13.7578 34.9074 13.0234 34.1669 12.2109 34.1669C11.3984 34.1669 10.6641 34.9074 10.6641 35.8134C10.6641 36.7194 11.3984 37.46 12.2109 37.46Z" fill="#301411"/>
<path d="M29.5625 32.5361C31.3516 32.5361 32.7422 34.0172 32.7422 35.8213C32.7422 37.6254 31.2734 39.1065 29.5625 39.1065C27.7734 39.1065 26.3828 37.6254 26.3828 35.8213C26.3828 34.0172 27.8516 32.5361 29.5625 32.5361ZM29.5625 37.46C30.4609 37.46 31.1094 36.7194 31.1094 35.8134C31.1094 34.9074 30.375 34.1669 29.5625 34.1669C28.6641 34.1669 28.0156 34.9074 28.0156 35.8134C28.0156 36.7273 28.7422 37.46 29.5625 37.46Z" fill="#301411"/>
<path d="M4.55469 0.503418L5.82031 5.51391H37.7891L31.8906 23.1373C33.8672 23.4288 35.3438 25.1147 35.3438 27.2812C35.3438 29.6604 33.5547 31.5511 31.2734 31.5511H9.89062C9.46094 31.5511 9.11719 31.2045 9.11719 30.7712C9.11719 30.3379 9.46094 29.9912 9.89062 29.9912H31.2734C32.6562 29.9912 33.7188 28.841 33.7188 27.3599C33.7188 25.8789 32.5781 24.7287 31.2734 24.7287H9.11719H9.03906L3.25781 2.14207H0.773438C0.34375 2.14207 0 1.79543 0 1.36213V1.28335C0 0.850055 0.34375 0.503418 0.773438 0.503418H4.55469ZM10.2578 23.09H30.2109L35.5078 7.15256H6.26562L10.2578 23.09Z" fill="#301411"/>
<path d="M26.6719 11.0127H26.5859C26.1562 11.0127 25.8125 11.3593 25.8125 11.7926V19.5132C25.8125 19.9465 26.1562 20.2931 26.5859 20.2931H26.6719C27.1016 20.2931 27.4453 19.9465 27.4453 19.5132V11.7926C27.4453 11.3593 27.1016 11.0127 26.6719 11.0127Z" fill="#301411"/>
<path d="M20.8828 11.0127H20.7969C20.3672 11.0127 20.0234 11.3593 20.0234 11.7926V19.5132C20.0234 19.9465 20.3672 20.2931 20.7969 20.2931H20.8828C21.3125 20.2931 21.6562 19.9465 21.6562 19.5132V11.7926C21.6562 11.3593 21.3125 11.0127 20.8828 11.0127Z" fill="#301411"/>
<path d="M15.1016 11.0127H15.0156C14.5859 11.0127 14.2422 11.3593 14.2422 11.7926V19.5132C14.2422 19.9465 14.5859 20.2931 15.0156 20.2931H15.1016C15.5313 20.2931 15.875 19.9465 15.875 19.5132V11.7926C15.875 11.3593 15.5313 11.0127 15.1016 11.0127Z" fill="#301411"/>
</svg>
