<svg width="15" height="18" viewBox="0 0 15 18" fill="none" xmlns="http://www.w3.org/2000/svg">
<path d="M8.51267 16.8034H6.10562C5.91255 16.8034 5.72738 16.7234 5.59086 16.5811C5.45433 16.4388 5.37764 16.2457 5.37764 16.0445V10.3833H3.97451C3.78143 10.3833 3.59627 10.3033 3.45974 10.161C3.32322 10.0187 3.24652 9.82568 3.24652 9.6244V7.20082C3.24652 6.99955 3.32322 6.80652 3.45974 6.6642C3.59627 6.52188 3.78143 6.44192 3.97451 6.44192H5.37764V5.22707C5.37764 4.02446 5.74163 2.99933 6.42558 2.26491C7.11541 1.52437 8.07822 1.13574 9.2113 1.13574L11.0459 1.1388C11.2388 1.13929 11.4237 1.21936 11.5601 1.36151C11.6965 1.50366 11.7734 1.69633 11.7739 1.8974V4.14962C11.7739 4.24928 11.7551 4.34796 11.7185 4.44003C11.6819 4.53211 11.6283 4.61577 11.5607 4.68624C11.4931 4.75671 11.4128 4.81261 11.3245 4.85075C11.2362 4.88889 11.1415 4.90851 11.0459 4.90851H9.81012C9.43439 4.90851 9.33752 4.98808 9.31697 5.01256C9.28175 5.05234 9.24359 5.16556 9.24359 5.47769V6.43855H10.9549C11.081 6.43837 11.2051 6.47098 11.316 6.53342C11.4297 6.59917 11.5245 6.6954 11.5905 6.81214C11.6566 6.92889 11.6915 7.06191 11.6917 7.19745V9.62104C11.6917 9.82231 11.615 10.0153 11.4785 10.1577C11.342 10.3 11.1568 10.3799 10.9637 10.3799H9.24652V16.038C9.24552 16.2406 9.16789 16.4346 9.03049 16.5779C8.89309 16.7212 8.70701 16.8022 8.51267 16.8034V16.8034Z" stroke="#373737" stroke-width="1.3" stroke-miterlimit="10"/>
</svg>
