<svg width="14" height="14" viewBox="0 0 14 14" fill="none" xmlns="http://www.w3.org/2000/svg">
<path d="M4.86312 11.687C5.48741 11.687 5.97266 12.2038 5.97266 12.8334C5.97266 13.4629 5.46014 13.9797 4.86312 13.9797C4.2661 13.9797 3.75359 13.4629 3.75359 12.8334C3.75359 12.2038 4.2661 11.687 4.86312 11.687ZM4.86312 13.4052C5.17663 13.4052 5.4029 13.1467 5.4029 12.8306C5.4029 12.5145 5.14664 12.2561 4.86312 12.2561C4.57961 12.2561 4.32335 12.5145 4.32335 12.8306C4.32335 13.1467 4.57961 13.4052 4.86312 13.4052Z" fill="#301411"/>
<path d="M10.9178 11.687C11.5421 11.687 12.0273 12.2038 12.0273 12.8334C12.0273 13.4629 11.5148 13.9797 10.9178 13.9797C10.2935 13.9797 9.80828 13.4629 9.80828 12.8334C9.80828 12.2038 10.3208 11.687 10.9178 11.687ZM10.9178 13.4052C11.2313 13.4052 11.4576 13.1467 11.4576 12.8306C11.4576 12.5145 11.2013 12.2561 10.9178 12.2561C10.6043 12.2561 10.378 12.5145 10.378 12.8306C10.378 13.1495 10.6316 13.4052 10.9178 13.4052Z" fill="#301411"/>
<path d="M2.19213 0.509277L2.63376 2.25766H13.7891L11.7308 8.40722C12.4205 8.50893 12.9358 9.09723 12.9358 9.85321C12.9358 10.6834 12.3115 11.3432 11.5155 11.3432H4.05407C3.90414 11.3432 3.78419 11.2222 3.78419 11.071C3.78419 10.9198 3.90414 10.7989 4.05407 10.7989H11.5155C11.998 10.7989 12.3688 10.3975 12.3688 9.8807C12.3688 9.36388 11.9707 8.96252 11.5155 8.96252H3.78419H3.75693L1.7396 1.08107H0.872688C0.722752 1.08107 0.602802 0.960117 0.602802 0.808921V0.781431C0.602802 0.630234 0.722752 0.509277 0.872688 0.509277H2.19213ZM4.1822 8.39073H11.1447L12.993 2.82945H2.78915L4.1822 8.39073Z" fill="#301411"/>
<path d="M9.9098 4.17676H9.87981C9.72988 4.17676 9.60993 4.29772 9.60993 4.44891V7.14296C9.60993 7.29415 9.72988 7.41511 9.87981 7.41511H9.9098C10.0597 7.41511 10.1797 7.29415 10.1797 7.14296V4.44891C10.1797 4.29772 10.0597 4.17676 9.9098 4.17676Z" fill="#301411"/>
<path d="M7.89027 4.17676H7.86028C7.71035 4.17676 7.5904 4.29772 7.5904 4.44891V7.14296C7.5904 7.29415 7.71035 7.41511 7.86028 7.41511H7.89027C8.04021 7.41511 8.16016 7.29415 8.16016 7.14296V4.44891C8.16016 4.29772 8.04021 4.17676 7.89027 4.17676Z" fill="#301411"/>
<path d="M5.87269 4.17676H5.8427C5.69277 4.17676 5.57282 4.29772 5.57282 4.44891V7.14296C5.57282 7.29415 5.69277 7.41511 5.8427 7.41511H5.87269C6.02263 7.41511 6.14258 7.29415 6.14258 7.14296V4.44891C6.14258 4.29772 6.02263 4.17676 5.87269 4.17676Z" fill="#301411"/>
</svg>
