<svg width="17" height="17" viewBox="0 0 17 17" fill="none" xmlns="http://www.w3.org/2000/svg">
<path d="M12.4067 0H4.59332C2.06059 0 0 2.06059 0 4.59332V12.4067C0 14.9394 2.06059 17 4.59332 17H12.4067C14.9394 17 17 14.9394 17 12.4067V4.59332C17 2.06059 14.9394 0 12.4067 0ZM15.6274 12.4067C15.6265 13.2606 15.2869 14.0793 14.6831 14.6831C14.0793 15.2869 13.2606 15.6265 12.4067 15.6274H4.59332C3.73941 15.6265 2.92072 15.2869 2.31691 14.6831C1.7131 14.0793 1.3735 13.2606 1.37262 12.4067V4.59332C1.3735 3.73941 1.7131 2.92072 2.31691 2.31691C2.92072 1.7131 3.73941 1.3735 4.59332 1.37262H12.4067C13.2606 1.3735 14.0793 1.7131 14.6831 2.31691C15.2869 2.92072 15.6265 3.73941 15.6274 4.59332V12.4067Z" fill="#343333"/>
<path d="M12.3046 7.90717C12.1845 7.09817 11.8075 6.34923 11.2291 5.77091C10.6508 5.19259 9.90187 4.81554 9.09287 4.69543C8.25227 4.57095 7.39418 4.73087 6.65486 5.14981C5.91553 5.56874 5.33737 6.22268 5.01218 7.00776C4.68699 7.79285 4.63342 8.66408 4.85997 9.48309C5.08653 10.3021 5.58022 11.0219 6.26264 11.5283C6.91635 12.0158 7.71 12.2791 8.52543 12.279C8.71535 12.2791 8.90502 12.2651 9.09287 12.2372C10.0929 12.0888 10.9931 11.5493 11.5954 10.7373C12.1977 9.92527 12.4528 8.90726 12.3046 7.90717ZM8.89133 10.8785C8.41428 10.9492 7.92697 10.8769 7.49103 10.6706C7.0551 10.4644 6.69011 10.1335 6.44222 9.71979C6.19434 9.30611 6.07468 8.82821 6.0984 8.34653C6.12211 7.86484 6.28812 7.40101 6.57544 7.01367C6.86276 6.62634 7.25849 6.3329 7.71257 6.17047C8.16666 6.00803 8.65872 5.98389 9.12652 6.1011C9.59433 6.21831 10.0169 6.47161 10.3407 6.82896C10.6646 7.18631 10.8752 7.63167 10.9459 8.10872C10.9949 8.42575 10.9805 8.74934 10.9035 9.06075C10.8264 9.37216 10.6884 9.66517 10.4972 9.92282C10.3061 10.1805 10.0658 10.3976 9.79009 10.5617C9.51443 10.7257 9.20894 10.8334 8.89133 10.8785Z" fill="#343333"/>
<path d="M13.2829 3.71859C13.1706 3.60629 13.0228 3.53642 12.8647 3.52088C12.7066 3.50533 12.548 3.54507 12.4159 3.63334C12.2839 3.7216 12.1865 3.85292 12.1404 4.00493C12.0943 4.15694 12.1023 4.32023 12.1631 4.46698C12.2239 4.61374 12.3337 4.73488 12.4738 4.80976C12.6139 4.88465 12.7756 4.90865 12.9314 4.87767C13.0872 4.8467 13.2274 4.76267 13.3282 4.63989C13.429 4.51712 13.4841 4.3632 13.4841 4.20435C13.4836 4.02226 13.4113 3.84771 13.2829 3.71859Z" fill="#343333"/>
</svg>
