<svg width="22" height="22" viewBox="0 0 22 22" fill="none" xmlns="http://www.w3.org/2000/svg">
<path d="M10.9998 0C6.53415 0 2.9007 3.63346 2.9007 8.09952C2.9007 9.26444 3.13913 10.3767 3.60901 11.4056C5.63401 15.8368 9.51648 20.5151 10.6584 21.8433C10.744 21.9426 10.8687 21.9998 11 21.9998C11.1312 21.9998 11.256 21.9426 11.3415 21.8433C12.483 20.5154 16.3655 15.8372 18.3912 11.4056C18.8613 10.3767 19.0995 9.26444 19.0995 8.09952C19.0991 3.63346 15.4656 0 10.9998 0ZM10.9998 12.3064C8.68005 12.3064 6.79262 10.419 6.79262 8.09929C6.79262 5.77935 8.68005 3.89193 10.9998 3.89193C13.3195 3.89193 15.2069 5.77935 15.2069 8.09929C15.2071 10.419 13.3197 12.3064 10.9998 12.3064Z" fill="#301411"/>
</svg>
