<svg width="36" height="36" viewBox="0 0 36 36" fill="none" xmlns="http://www.w3.org/2000/svg">
<circle cx="18" cy="18" r="18" fill="#4A6124"/>
<g clip-path="url(#clip0)">
<path d="M17.4279 17.9595L12.1164 23.271C11.9688 23.4185 11.9688 23.6576 12.1164 23.8052C12.1901 23.879 12.2868 23.9158 12.3834 23.9158C12.4801 23.9158 12.5767 23.879 12.6504 23.8052L18.0018 18.4537L23.3532 23.8052C23.4271 23.879 23.5237 23.9158 23.6202 23.9158C23.7168 23.9158 23.8136 23.879 23.8872 23.8052C24.0348 23.6576 24.0348 23.4185 23.8872 23.271L18.5759 17.9595L23.8908 12.6442C24.0384 12.4967 24.0384 12.2576 23.8908 12.11C23.7432 11.9627 23.5042 11.9627 23.3568 12.11L18.002 17.4652L12.6466 12.1102C12.4991 11.9629 12.2602 11.9629 12.1126 12.1102C11.9651 12.2578 11.9651 12.4969 12.1126 12.6444L17.4279 17.9595Z" fill="white"/>
</g>
<defs>
<clipPath id="clip0">
<rect x="12" y="12" width="12" height="12" fill="white"/>
</clipPath>
</defs>
</svg>
